<?xml version="1.0" encoding="utf-8"?>
<!-- Generator: Adobe Illustrator 21.1.0, SVG Export Plug-In . SVG Version: 6.00 Build 0)  -->
<svg version="1.1" id="圖層_1" xmlns="http://www.w3.org/2000/svg" xmlns:xlink="http://www.w3.org/1999/xlink" x="0px" y="0px"
	 viewBox="0 0 480 480" style="enable-background:new 0 0 480 480;" xml:space="preserve">
<style type="text/css">
	.st0{fill:#FFFFFF;}
</style>
<g>
	<path class="st0" d="M240,67.5h-74.8c-3.2,0-5.8,2.6-5.8,5.8v40.3H73.3c-3.2,0-5.8,2.6-5.8,5.8v287.5c0,3.2,2.6,5.8,5.8,5.8H240
		c3.2,0,5.8-2.6,5.8-5.8V73.2C245.8,70.1,243.2,67.5,240,67.5z M234.3,366.5H171V355h63.3V366.5z M79,153.7h80.5v172.5H79V153.7z
		 M234.3,130.7H171v-17.3h63.3V130.7z M79,337.8h80.5V355H79V337.8z M171,343.5V142.2h63.3v201.3H171z M234.3,79v23H171V79H234.3z
		 M159.5,125v17.3H79V125H159.5z M79,366.5h80.5V401H79V366.5z M171,401v-23h63.3v23H171z"/>
	<path class="st0" d="M412.3,382.3l-69-264.5c-0.4-1.5-1.3-2.7-2.7-3.5c-1.3-0.8-2.9-1-4.4-0.6l-86.3,23c-3.1,0.8-4.9,3.9-4.1,7
		l69,264.5c0.4,1.5,1.3,2.7,2.7,3.5c1.3,0.8,2.9,1,4.4,0.6l86.3-23C411.3,388.5,413.1,385.4,412.3,382.3z M267.7,181.5l75.1-20
		l2.7,10.3l-75.1,20.1L267.7,181.5z M348.4,182.9l33.3,127.9l-75.1,20L273.3,203L348.4,182.9z M384.7,322l5.9,22.6l-75.1,20
		l-5.9-22.6L384.7,322z M333.6,126.3l6.3,24l-75.1,20l-6.3-24L333.6,126.3z M324.6,399.7l-6.3-24l75.1-20l6.3,24L324.6,399.7z"/>
	<path class="st0" d="M142.3,171h-46c-3.2,0-5.8,2.6-5.8,5.8v46c0,3.2,2.6,5.8,5.8,5.8h46c3.2,0,5.8-2.6,5.8-5.8v-46
		C148,173.6,145.4,171,142.3,171z M136.5,217H102v-34.5h34.5V217z"/>
</g>
</svg>
