<?xml version="1.0" encoding="utf-8"?>
<!-- Generator: Adobe Illustrator 21.1.0, SVG Export Plug-In . SVG Version: 6.00 Build 0)  -->
<svg version="1.1" id="Capa_1" xmlns="http://www.w3.org/2000/svg" xmlns:xlink="http://www.w3.org/1999/xlink" x="0px" y="0px"
	 viewBox="0 0 512 512" style="enable-background:new 0 0 512 512;" xml:space="preserve">
<style type="text/css">
	.st0{fill:#FFFFFF;}
</style>
<g>
	<path class="st0" d="M505.1,150.5l-246-80c-2-0.7-4.2-0.7-6.2,0l-246,80C2.8,151.8,0,155.7,0,160s2.8,8.2,6.9,9.5L126,208.2V280
		c0,3.3,1.7,6.5,4.5,8.3C133,290,193.7,330,255.7,330c62.6,0,123.3-40,125.8-41.7c2.8-1.9,4.5-5,4.5-8.3v-71.8l40-13v96.5
		c-11.6,4.1-20,15.2-20,28.3c0,12.2,7.3,22.7,17.8,27.4l-27.5,110.2c-1.6,6.3,3.2,12.4,9.7,12.4h60c6.5,0,11.3-6.1,9.7-12.4
		l-27.5-110.2c10.5-4.7,17.8-15.2,17.8-27.4c0-13-8.4-24.2-20-28.3v-103l59.1-19.2c4.1-1.3,6.9-5.2,6.9-9.5S509.2,151.8,505.1,150.5
		L505.1,150.5z M418.8,450l17.2-68.8l17.2,68.8H418.8z M366,274.5c-14.6,8.8-62.8,35.5-110.3,35.5c-46.9,0-95.1-26.7-109.7-35.5
		v-59.7l106.9,34.8c2,0.7,4.2,0.7,6.2,0L366,214.7V274.5z M256,229.5C226.9,220,76.8,171.2,42.3,160L256,90.5L469.7,160
		C448.5,166.9,265.4,226.4,256,229.5L256,229.5z"/>
</g>
</svg>
