<?xml version="1.0" encoding="utf-8"?>
<!-- Generator: Adobe Illustrator 21.1.0, SVG Export Plug-In . SVG Version: 6.00 Build 0)  -->
<svg version="1.1" id="Capa_1" xmlns="http://www.w3.org/2000/svg" xmlns:xlink="http://www.w3.org/1999/xlink" x="0px" y="0px"
	 viewBox="0 0 715 512" style="enable-background:new 0 0 715 512;" xml:space="preserve">
<style type="text/css">
	.st0{fill:#FFD5B3;}
	.st1{fill:#046699;}
	.st2{fill:#9EA7AF;}
	.st3{fill:#FFFFFF;}
	.st4{fill:#FFB98A;}
	.st5{fill:#775436;}
	.st6{fill:#F7931E;}
	.st7{opacity:0.1;}
	.st8{fill:#FCDB67;}
	.st9{fill:#EF5050;}
	.st10{opacity:0.1;enable-background:new    ;}
</style>
<g>
	<path class="st0" d="M393.5,221.4h-58.4v42.2h13.1l-13.1,13.1v2.3h-2.3l-20.2,20.2c3.7,7.8,3.8,15.8,3.8,15.8v21.7l1.3,1.3
		l89.3-79.4c4.7-3.9,7.6-9.7,7.6-16.2C414.5,230.9,405.1,221.4,393.5,221.4z"/>
	<polygon class="st1" points="276.6,249.9 305.7,279.1 335.1,279.1 335.1,220.3 306.2,220.3 	"/>
	<circle class="st2" cx="170.7" cy="413.6" r="90.1"/>
	<path class="st3" d="M170.7,479.6c-36.4,0-66.1-29.6-66.1-66.1s29.6-66.1,66.1-66.1c36.4,0,66.1,29.6,66.1,66.1
		C236.8,450,207.2,479.6,170.7,479.6z"/>
	<circle class="st2" cx="531" cy="413.6" r="90.1"/>
	<path class="st3" d="M531,479.6c-36.4,0-66.1-29.6-66.1-66.1s29.6-66.1,66.1-66.1s66.1,29.6,66.1,66.1
		C597.1,450,567.5,479.6,531,479.6z"/>
	<path class="st2" d="M347.3,392c-14.3,0-26.1,10.4-28.4,24h20.4c3.1,0,5.6,2.5,5.6,5.6v14.1c0,3.1-2.5,5.6-5.6,5.6h-12.4
		c5.2,5.2,12.4,8.4,20.3,8.4c15.9,0,28.8-12.9,28.8-28.8C376.1,404.9,363.2,392,347.3,392z"/>
	<path class="st4" d="M284.4,416h31.9l0-100.9c0,0-0.2-15.9-10.4-24.6l-31.3,31.3l7.9,94.5C283.1,416.1,283.7,416,284.4,416z"/>
	<path id="SVGCleanerId_0" class="st0" d="M328.7,86.6c0,9.7,3.2,18.7,8.6,26c1.5,1,3,2.1,4.3,3.4l7.6,7.6
		c6.7,4.2,14.6,6.6,23.1,6.6c24.1,0,43.5-19.5,43.5-43.5V56.9h-87.1L328.7,86.6L328.7,86.6z"/>
	<g>
		<path id="SVGCleanerId_0_1_" class="st0" d="M328.7,86.6c0,9.7,3.2,18.7,8.6,26c1.5,1,3,2.1,4.3,3.4l7.6,7.6
			c6.7,4.2,14.6,6.6,23.1,6.6c24.1,0,43.5-19.5,43.5-43.5V56.9h-87.1L328.7,86.6L328.7,86.6z"/>
	</g>
	<path class="st5" d="M328.7,86.6c0,9.7,3.2,18.7,8.6,26c1.5,1,3,2.1,4.3,3.4l7.6,7.6c1.3,0.8,2.7,1.6,4.2,2.3V56.9h-24.6
		L328.7,86.6L328.7,86.6z"/>
	<path class="st6" d="M344.9,435.6c0,3.1-2.5,5.6-5.6,5.6h-54.9c-3.1,0-5.6-2.5-5.6-5.6v-14.1c0-3.1,2.5-5.6,5.6-5.6h54.9
		c3.1,0,5.6,2.5,5.6,5.6V435.6z"/>
	<g class="st7">
		<path d="M301.8,435.6v-14.1c0-3.1,2.5-5.6,5.6-5.6h-23c-3.1,0-5.6,2.5-5.6,5.6v14.1c0,3.1,2.5,5.6,5.6,5.6h23
			C304.3,441.2,301.8,438.7,301.8,435.6z"/>
	</g>
	<path class="st8" d="M339.8,184.3c-0.9,0-1.9-0.2-2.8-0.7c-19.6-10.1-31.8-30.2-31.8-52.3c0-4.4,0.5-8.9,1.5-13.2
		c0.2-1.1,0.8-2,1.6-2.8c-0.2,0.2-0.5,0.4-0.7,0.6l-82.5,82.5l51.5,51.5l67.4-67.4C342.9,183.7,341.3,184.3,339.8,184.3z"/>
	<path class="st1" d="M311.6,284.9l-86.4-86.4c0,0-0.1-0.1-0.1-0.1L200.6,223c-9.3,9.3-9.3,24.6,0,34l69.5,69.5L311.6,284.9z"/>
	<g class="st7">
		<path d="M305.3,131.3c0-4.4,0.5-8.9,1.5-13.2c0.2-1.1,0.8-2,1.6-2.8c-0.2,0.2-0.5,0.4-0.7,0.6l-82.5,82.5l11.2,11.2l69.6-69.6
			C305.5,137.2,305.3,134.3,305.3,131.3z"/>
	</g>
	<g class="st7">
		<path d="M223.1,256.9c-9.3-9.3-9.3-24.6,0-34l13.3-13.3l-11.2-11.2c0,0-0.1-0.1-0.1-0.1L200.6,223c-9.3,9.3-9.3,24.6,0,34
			l69.5,69.5l11.3-11.3L223.1,256.9z"/>
	</g>
	<path class="st4" d="M497.5,213h-34.2l-54.2-29.5l-67.6-67.6c-4.5-4.5-10.6-7-17-7c-5.9,0-11.6,2.1-16,6c-0.9,0.8-1.6,1.9-1.9,3.1
		c-1,4.3-1.5,8.8-1.5,13.2c0,22.1,12.2,42.1,31.8,52.3c0.9,0.5,1.8,0.7,2.8,0.7c1.6,0,3.1-0.6,4.2-1.8l6.1-6.1l43.4,34.9
		c0.4,0.3,0.8,0.6,1.3,0.8l70.5,32.5c0.7,0.3,1.4,0.5,2.2,0.5c0.4,0.3,0.8,0.6,1.2,0.9c0.9-7.8,7.5-13.8,15.5-13.8
		c8.5,0,15.5,6.9,15.6,15.4c4.9-1,8.6-5.4,8.6-10.6v-13.1C508.4,217.9,503.5,213,497.5,213z"/>
	<path class="st9" d="M372.2,11.2c-24.1,0-43.5,12-43.5,36v9.6h87.1v-8.4C415.7,24.4,396.3,11.2,372.2,11.2z"/>
	<path class="st10" d="M351.9,47.3c0-19.9,13.4-31.6,31.7-35c-3.6-0.7-7.5-1.1-11.4-1.1c-24.1,0-43.5,12-43.5,36v9.6h23.3V47.3z"/>
	<circle class="st1" cx="484.2" cy="247.8" r="15.6"/>
	<path d="M392.9,95.3c4.6,0,8.4-3.7,8.4-8.4v-7.8c0-4.6-3.7-8.4-8.4-8.4s-8.4,3.7-8.4,8.4v7.8C384.6,91.5,388.3,95.3,392.9,95.3z"/>
	<path d="M634.3,495.3h-48.5c26.3-17.7,43.6-47.7,43.6-81.7c0-54.3-44.2-98.4-98.4-98.4c-10.3,0-20.3,1.6-29.7,4.6l-7.4-17.9h34.7
		c17.5,0,31.8-14.3,31.8-31.8c0-17.5-14.3-31.8-31.8-31.8h-11.9c0-0.4,0.1-0.9,0.1-1.3v-13.1c0-10.6-8.6-19.2-19.2-19.2h-32.1
		l-51.2-27.9l-8.5-8.5c-3.3-3.3-8.6-3.3-11.8,0c-3.3,3.3-3.3,8.6,0,11.8l9.3,9.3c0.6,0.6,1.2,1,1.9,1.4l54.2,29.5c1.2,0.7,2.6,1,4,1
		h34.2c1.4,0,2.5,1.1,2.5,2.5v6c-4.2-3.7-9.8-6-15.9-6c-8.4,0-15.8,4.4-20.1,11l-65.5-30.2l-43.2-34.7c-3.3-2.7-8.1-2.4-11.1,0.6
		l-4.9,4.9c-15.9-8.9-25.8-25.6-25.8-44c0-3.6,0.4-7.1,1.1-10.6c2.8-2.2,6.2-3.5,9.8-3.5c4.2,0,8.1,1.6,11.1,4.6l31.5,31.5
		c3.3,3.3,8.6,3.3,11.8,0c3.3-3.3,3.3-8.6,0-11.8l-3.2-3.2c26.9-1.9,48.3-24.4,48.3-51.8V48.5c0-26.8-21.3-45.6-51.9-45.6
		c-31,0-51.9,17.8-51.9,44.4v1.3H292c-4.6,0-8.4,3.7-8.4,8.4s3.7,8.4,8.4,8.4h28.3v21.4c0,4.9,0.7,9.6,2,14.1
		c-7.1,0.5-13.9,3.3-19.2,8.1c-0.4,0.3-108.4,108.3-108.4,108.3c-12.6,12.6-12.6,33.2,0,45.8l55.8,55.8l-17.8,18.5
		c-16.9-13.7-38.5-22-61.9-22c-54.3,0-98.4,44.2-98.4,98.4c0,34,17.3,64,43.6,81.7H89.1c-4.6,0-8.4,3.7-8.4,8.4
		c0,4.6,3.7,8.4,8.4,8.4h545.3c4.6,0,8.4-3.7,8.4-8.4C642.7,499,638.9,495.3,634.3,495.3z M407.4,86.6c0,19.4-15.8,35.2-35.2,35.2
		c-3.7,0-7.2-0.6-10.6-1.6V65.2h45.7V86.6z M337,47.3c0-6.5,2.5-27.7,35.2-27.7c16.2,0,35.2,7.6,35.2,28.9v0.1H337V47.3L337,47.3z
		 M337,65.2h7.9v42.5c-0.6-0.5-1.2-0.9-1.8-1.4c-3.9-5.6-6.1-12.5-6.1-19.8V65.2z M484.2,240.6c4,0,7.3,3.3,7.3,7.3
		c0,4-3.3,7.3-7.3,7.3c-4,0-7.3-3.3-7.3-7.3C476.9,243.8,480.2,240.6,484.2,240.6z M422.9,242.5c0-3.1-0.5-6.1-1.4-8.9l39,18
		c1.8,11.4,11.7,20.2,23.6,20.2c10.7,0,19.8-7.1,22.9-16.8h21.6c8.3,0,15.1,6.8,15.1,15.1c0,8.3-6.8,15.1-15.1,15.1H389.8l22.5-20
		C419.1,259.5,422.9,251.2,422.9,242.5z M406.2,242.5c0,3.8-1.7,7.4-4.6,9.8c-0.1,0.1-0.1,0.1-0.2,0.2l-36.7,32.6h-21.3v-4.9
		l10.7-10.7c2.4-2.4,3.1-6,1.8-9.1c-1.3-3.1-4.3-5.2-7.7-5.2h-4.8v-25.5h50C400.5,229.8,406.2,235.5,406.2,242.5z M322.5,301.8h23.4
		l-21.2,18.9V315C324.7,314.3,324.6,308.6,322.5,301.8z M339.3,407.6h-7.7c3.8-4.5,9.4-7.3,15.6-7.3c11.3,0,20.5,9.2,20.5,20.5
		c0,9.6-6.6,17.6-15.5,19.8c0.6-1.5,0.9-3.2,0.9-5v-14.1C353.2,413.9,347,407.6,339.3,407.6z M336.5,424.3v8.5h-49.3v-8.5H336.5z
		 M308,315.2l0,90h-18.1l-6.7-80.2l21.9-21.9C307.7,308.8,308,314.7,308,315.2z M288.4,249.9l21.2-21.2h17v42h-17.5L288.4,249.9z
		 M350.7,187.6l31.6,25.4h-43.2c-1.2-0.7-2.6-1.1-4.1-1.1h-8.7L350.7,187.6z M297.2,138.1c2,20.2,13,38.3,30,49.4l-50.6,50.6
		l-39.7-39.7L297.2,138.1z M206.5,251c-2.9-2.9-4.6-6.9-4.6-11.1c0-4.2,1.6-8.1,4.6-11.1l18.6-18.6l74.6,74.6L270,314.6L206.5,251z
		 M262.2,330.4l1.9,1.9c0.9,0.9,2,1.6,3.1,2l5.9,70.9h-4.3c-1.8-21.6-10.6-41.2-24.1-56.5L262.2,330.4z M233.1,360.8
		c10.4,12.3,17.3,27.6,19,44.4h-7.4C243,390.4,237,377,228,366.1L233.1,360.8z M164.7,416.1c1.5,3.6,5.1,5.8,9.4,5.8h53.7
		c-4.1,27.9-28.1,49.3-57.1,49.3c-31.8,0-57.7-25.9-57.7-57.7s25.9-57.7,57.7-57.7c12.5,0,24.1,4,33.5,10.8L167,405.4
		C164.1,408.4,163.2,412.6,164.7,416.1z M190.4,405.2l25.9-27c6,7.7,10.1,16.9,11.5,27H190.4z M89,413.6c0-45.1,36.7-81.7,81.7-81.7
		c18.9,0,36.4,6.5,50.3,17.4l-5.1,5.3c-12.5-9.6-28.2-15.3-45.2-15.3c-41,0-74.4,33.4-74.4,74.4s33.4,74.4,74.4,74.4
		c38.2,0,69.8-28.9,73.9-66.1h7.4c-4.2,41.2-39.1,73.4-81.3,73.4C125.7,495.3,89,458.6,89,413.6z M225.5,495.3
		c24.1-16.2,40.7-42.8,43.3-73.4h1.7v13.7c0,7.7,6.2,13.9,13.9,13.9h39.4c6.4,5.3,14.6,8.4,23.5,8.4c20.5,0,37.2-16.7,37.2-37.2
		c0-8.2-2.7-15.7-7.1-21.9l6.2-6.5c3.2-3.3,3.1-8.6-0.2-11.8c-3.3-3.2-8.6-3.1-11.8,0.2l-6.8,7.1c-5.2-2.8-11.1-4.3-17.4-4.3
		c-8.5,0-16.3,2.9-22.6,7.7l0-48.2l46.4-41.2h76.4l-50.3,52.3c-3.2,3.3-3.1,8.6,0.2,11.8c3.3,3.2,8.6,3.1,11.8-0.2l61.4-63.9h5.3
		l10,24.3c-31.6,16.4-53.3,49.4-53.3,87.5c0,34,17.3,64,43.6,81.7H225.5L225.5,495.3z M449.3,413.6c0-31.1,17.4-58.1,43-71.9
		l2.8,6.8c-22.9,12.7-38.5,37.1-38.5,65.1c0,41,33.4,74.4,74.4,74.4s74.4-33.4,74.4-74.4c0-8.7-1.5-17.2-4.4-25.3
		c-1.6-4.3-6.4-6.6-10.7-5c-4.3,1.6-6.6,6.4-5,10.7c2.3,6.3,3.4,12.9,3.4,19.6c0,31.8-25.9,57.7-57.7,57.7
		c-31.8,0-57.7-25.9-57.7-57.7c0-21,11.3-39.5,28.2-49.6l21.8,52.8c1.3,3.2,4.4,5.2,7.7,5.2c1.1,0,2.1-0.2,3.2-0.6
		c3.2-1.3,5.2-4.4,5.2-7.7c0-1.1-0.2-2.1-0.6-3.2L517,357.6c4.5-1.1,9.2-1.7,14-1.7c12,0,23.5,3.7,33.3,10.6c3.8,2.7,9,1.8,11.6-2
		c2.7-3.8,1.8-9-2-11.6c-12.6-8.9-27.5-13.7-42.9-13.7c-7.1,0-14,1-20.5,2.9l-2.8-6.8c7.4-2.2,15.2-3.4,23.3-3.4
		c45.1,0,81.7,36.7,81.7,81.7s-36.7,81.7-81.7,81.7S449.3,458.6,449.3,413.6z"/>
</g>
</svg>
