<?xml version="1.0" encoding="utf-8"?>
<!-- Generator: Adobe Illustrator 21.1.0, SVG Export Plug-In . SVG Version: 6.00 Build 0)  -->
<svg version="1.1" id="bold" xmlns="http://www.w3.org/2000/svg" xmlns:xlink="http://www.w3.org/1999/xlink" x="0px" y="0px"
	 viewBox="0 0 512 512" style="enable-background:new 0 0 512 512;" xml:space="preserve">
<style type="text/css">
	.st0{fill:#FFFFFF;}
</style>
<path class="st0" d="M320,138.7c-11.8,0-21.3-9.6-21.3-21.3v-32h-85.3v32c0,11.8-9.6,21.3-21.3,21.3s-21.3-9.6-21.3-21.3v-32
	c0-23.5,19.1-42.7,42.7-42.7h85.3c23.5,0,42.7,19.1,42.7,42.7v32C341.3,129.1,331.8,138.7,320,138.7z"/>
<path class="st0" d="M271.1,328.1c-3.8,1.5-9.4,2.6-15.1,2.6s-11.3-1.1-16.4-3L0,247.9v162.8c0,32.4,26.2,58.7,58.7,58.7h394.7
	c32.4,0,58.7-26.2,58.7-58.7V247.9L271.1,328.1z"/>
<path class="st0" d="M512,165.3v48.9l-250.9,83.6c-1.7,0.6-3.4,0.9-5.1,0.9s-3.4-0.2-5.1-0.9L0,214.2v-48.9
	c0-32.4,26.2-58.7,58.7-58.7h394.7C485.8,106.7,512,132.9,512,165.3z"/>
</svg>
