<?xml version="1.0" encoding="utf-8"?>
<!-- Generator: Adobe Illustrator 21.1.0, SVG Export Plug-In . SVG Version: 6.00 Build 0)  -->
<svg version="1.1" id="Capa_1" xmlns="http://www.w3.org/2000/svg" xmlns:xlink="http://www.w3.org/1999/xlink" x="0px" y="0px"
	 viewBox="0 0 455.7 455.7" style="enable-background:new 0 0 455.7 455.7;" xml:space="preserve">
<style type="text/css">
	.st0{fill:#FFFFFF;}
</style>
<g>
	<path class="st0" d="M188.7,165.2H185c-3.7,0-6.7,3-6.7,6.7V240c0,3.7,3,6.7,6.7,6.7h3.7c3.7,0,6.7-3,6.7-6.7v-68.1
		C195.4,168.2,192.4,165.2,188.7,165.2z"/>
	<path class="st0" d="M266.2,165.2c-2.4,0-4.5,1-6,2.5c-1.5,1.5-2.5,3.7-2.5,6v39.3c0,0-34.1-44.4-34.6-45c-1.6-1.8-4-2.9-6.7-2.9
		c-4.6,0.2-8.2,4.2-8.2,8.9v64.1c0,4.7,3.8,8.5,8.5,8.5c2.4,0,4.5-1,6-2.5c1.6-1.5,2.5-3.7,2.5-6V199c0,0,34.6,44.8,35.1,45.3
		c1.5,1.4,3.5,2.3,5.8,2.3c4.7,0,8.6-4.1,8.6-8.9v-64.1C274.7,169,270.9,165.2,266.2,165.2z"/>
	<path class="st0" d="M161.7,229.6h-25.6v-55.9c0-4.7-3.8-8.5-8.5-8.5c-2.4,0-4.5,1-6,2.5c-1.6,1.5-2.5,3.7-2.5,6v64.4
		c0,4.7,3.8,8.5,8.5,8.5h34.1c4.7,0,8.5-3.8,8.5-8.5c0-2.4-1-4.5-2.5-6C166.2,230.5,164,229.6,161.7,229.6z"/>
	<path class="st0" d="M330.2,182.2c4.7,0,8.5-3.8,8.5-8.5c0-4.7-3.8-8.5-8.5-8.5h-34.1c-4.7,0-8.5,3.8-8.5,8.5v64.4
		c0,4.7,3.8,8.5,8.5,8.5h34.1c4.7,0,8.5-3.8,8.5-8.5c0-2.4-1-4.5-2.5-6c-1.5-1.6-3.7-2.5-6-2.5h-25.6v-15.1h25.6
		c4.7,0,8.5-3.8,8.5-8.5c0-2.4-1-4.5-2.5-6c-1.5-1.6-3.7-2.5-6-2.5h-25.6v-15.1L330.2,182.2L330.2,182.2z"/>
	<path class="st0" d="M0,47.5v360.7c0,26.2,21.3,47.5,47.5,47.5h360.7c26.2,0,47.5-21.3,47.5-47.5V47.5c0-26.2-21.3-47.5-47.5-47.5
		H47.5C21.3,0,0,21.3,0,47.5z M394.6,209.5c-0.2,2.7-0.5,6.1-1.3,10.1c-2,12.9-6.4,25.1-12.8,36.5c-3,5.4-17.6,25.9-22.1,31.3
		c-24.7,29.7-65.9,64-135,97.3c-6.4,3.1-13.8-2.1-13-9.2l3.5-31.3c0.6-5-3.1-9.5-8-10C124.1,325.7,61,270.1,61,202.7
		C61,129.4,135.7,70,227.8,70c89.5,0,162.6,56.1,166.6,126.5C394.5,198.6,394.9,205.1,394.6,209.5z"/>
</g>
</svg>
