<?xml version="1.0" encoding="utf-8"?>
<!-- Generator: Adobe Illustrator 21.1.0, SVG Export Plug-In . SVG Version: 6.00 Build 0)  -->
<svg version="1.1" id="圖層_1" xmlns="http://www.w3.org/2000/svg" xmlns:xlink="http://www.w3.org/1999/xlink" x="0px" y="0px"
	 viewBox="0 0 512 512" style="enable-background:new 0 0 512 512;" xml:space="preserve">
<style type="text/css">
	.st0{fill:#FFFFFF;}
</style>
<g id="Page-1">
	<g id="_x30_31---University">
		<path id="Shape" class="st0" d="M457.5,417.8V256c0-1.1-0.3-2.1-0.8-3.1h0.1l-17-34c-3.5-7.1-10.7-11.6-18.6-11.6h-47v-6.9
			c0-1.8-0.7-3.6-2-4.9l-37.6-37.6c-2.5-2.5-5.6-4.3-9-5.2v-46.9l13.9-3.7v16.8v0c0,7.1,3.6,13.8,9.5,17.8c2.1,1.4,4.7,1.5,6.9,0.4
			s3.7-3.3,3.9-5.8c0.2-2.5-1-4.9-3.1-6.2c-2.1-1.4-3.3-3.7-3.3-6.2v0V97.7c4.9-2.8,7.6-8.3,6.8-13.8s-4.7-10.2-10.2-11.6L259.6,48
			c-2.3-0.6-4.8-0.6-7.1,0L162,72.2c-6.1,1.7-10.3,7.2-10.3,13.5c0,6.3,4.2,11.8,10.3,13.5l24.5,6.6v46h-0.4c-6.2,0-12,2.8-16,7.5
			L139.5,196c-1.1,1.2-1.6,2.8-1.6,4.4v6.9h-47c-7.9,0-15.1,4.4-18.6,11.5l-17,34h0.1c-0.5,1-0.8,2-0.8,3.1v161.8
			c-4.3,2.5-6.9,7-7,12v13.9c0,7.7,6.2,13.9,13.9,13.9h92.3c2.5,4.3,7,6.9,12,6.9h180.7c4.9,0,9.5-2.7,12-6.9h92.3
			c7.7,0,13.9-6.2,13.9-13.9v-13.9C464.5,424.8,461.8,420.2,457.5,417.8z M353.3,415.8h-6.9V262.9h97.3v152.9H353.3z M276.9,415.8
			h-41.7v-76.5h41.7V415.8z M283.8,325.5h-55.6c-3.8,0-6.9,3.1-6.9,7v83.4h-41.7V262.9h152.9v152.9h-41.7v-83.4
			C290.8,328.6,287.6,325.5,283.8,325.5z M360.3,207.3v13.9H151.8v-13.9H360.3z M346.4,235.1V249H165.6v-13.9H346.4z M421.2,221.2
			c2.6,0,5,1.5,6.2,3.8l12,24h-79.1v-13.9c7.7,0,13.9-6.2,13.9-13.9H421.2z M256,61.4l90.4,24.3h-0.1L256,110l-90.4-24.4L256,61.4z
			 M200.4,109.5l52,14c2.3,0.6,4.8,0.6,7.1,0l52-14v42.2H200.4V109.5z M180.7,168.2c1.3-1.6,3.3-2.5,5.3-2.5h133.7
			c1.8,0,3.6,0.7,4.9,2l25.8,25.8H159.6L180.7,168.2z M84.6,225.1c1.2-2.4,3.6-3.9,6.2-3.8h47c0,7.7,6.2,13.9,13.9,13.9V249H72.6
			L84.6,225.1z M61.4,429.7h90.3v13.9H61.4V429.7z M158.7,415.8H68.3V262.9h97.3v152.9H158.7z M165.6,450.6v-20.9h180.7v20.9H165.6z
			 M450.6,443.6h-90.4v-13.9h90.4V443.6z"/>
		<path id="Shape_1_" class="st0" d="M235.1,276.8c-3.8,0-6.9,3.1-6.9,7v13.9c0,3.8,3.1,6.9,6.9,6.9s6.9-3.1,6.9-6.9v-13.9
			C242.1,280,239,276.8,235.1,276.8z"/>
		<path id="Shape_2_" class="st0" d="M137.8,283.8c-3.8,0-6.9,3.1-6.9,6.9v13.9c0,3.8,3.1,7,6.9,7c3.8,0,7-3.1,7-7v-13.9
			C144.8,286.9,141.7,283.8,137.8,283.8z"/>
		<path id="Shape_3_" class="st0" d="M96.1,283.8c-3.8,0-6.9,3.1-6.9,6.9v13.9c0,3.8,3.1,7,6.9,7s7-3.1,7-7v-13.9
			C103.1,286.9,100,283.8,96.1,283.8z"/>
		<path id="Shape_4_" class="st0" d="M137.8,325.5c-3.8,0-6.9,3.1-6.9,7v13.9c0,3.8,3.1,7,6.9,7c3.8,0,7-3.1,7-7v-13.9
			C144.8,328.6,141.7,325.5,137.8,325.5z"/>
		<path id="Shape_5_" class="st0" d="M96.1,325.5c-3.8,0-6.9,3.1-6.9,7v13.9c0,3.8,3.1,7,6.9,7s7-3.1,7-7v-13.9
			C103.1,328.6,100,325.5,96.1,325.5z"/>
		<path id="Shape_6_" class="st0" d="M137.8,367.2c-3.8,0-6.9,3.1-6.9,6.9V388c0,3.8,3.1,6.9,6.9,6.9c3.8,0,7-3.1,7-6.9v-13.9
			C144.8,370.3,141.7,367.2,137.8,367.2z"/>
		<path id="Shape_7_" class="st0" d="M96.1,367.2c-3.8,0-6.9,3.1-6.9,6.9V388c0,3.8,3.1,6.9,6.9,6.9s7-3.1,7-6.9v-13.9
			C103.1,370.3,100,367.2,96.1,367.2z"/>
		<path id="Shape_8_" class="st0" d="M415.9,283.8c-3.8,0-7,3.1-7,6.9v13.9c0,3.8,3.1,7,7,7s6.9-3.1,6.9-7v-13.9
			C422.8,286.9,419.7,283.8,415.9,283.8z"/>
		<path id="Shape_9_" class="st0" d="M374.1,283.8c-3.8,0-7,3.1-7,6.9v13.9c0,3.8,3.1,7,7,7s7-3.1,7-7v-13.9
			C381.1,286.9,378,283.8,374.1,283.8z"/>
		<path id="Shape_10_" class="st0" d="M415.9,325.5c-3.8,0-7,3.1-7,7v13.9c0,3.8,3.1,7,7,7s6.9-3.1,6.9-7v-13.9
			C422.8,328.6,419.7,325.5,415.9,325.5z"/>
		<path id="Shape_11_" class="st0" d="M374.1,325.5c-3.8,0-7,3.1-7,7v13.9c0,3.8,3.1,7,7,7s7-3.1,7-7v-13.9
			C381.1,328.6,378,325.5,374.1,325.5z"/>
		<path id="Shape_12_" class="st0" d="M415.9,367.2c-3.8,0-7,3.1-7,6.9V388c0,3.8,3.1,6.9,7,6.9s6.9-3.1,6.9-6.9v-13.9
			C422.8,370.3,419.7,367.2,415.9,367.2z"/>
		<path id="Shape_13_" class="st0" d="M374.1,367.2c-3.8,0-7,3.1-7,6.9V388c0,3.8,3.1,6.9,7,6.9s7-3.1,7-6.9v-13.9
			C381.1,370.3,378,367.2,374.1,367.2z"/>
		<path id="Shape_14_" class="st0" d="M276.9,276.8c-3.8,0-7,3.1-7,7v13.9c0,3.8,3.1,6.9,7,6.9s6.9-3.1,6.9-6.9v-13.9
			C283.8,280,280.7,276.8,276.9,276.8z"/>
	</g>
</g>
</svg>
